name rise42.5664peak47.7979fall81.9185.mot
datacolumns 19
datarows 11
range 17.15493200000000 17.17160300000000
endheader
time	ground_force1_vx	ground_force1_vy	ground_force1_vz	ground_force1_px	ground_force1_py	ground_force1_pz	ground_force2_vx	ground_force2_vy	ground_force2_vz	ground_force2_px	ground_force2_py	ground_force2_pz	ground_torque1_x	ground_torque1_y	ground_torque1_z	ground_torque2_x	ground_torque2_y	ground_torque2_z	
17.15493200000000	-9.51054200000000	40.89349100000000	-10.41832600000000	0.29263700000000	0.00000000000000	0.09087500000000	-49.70814500000000	803.33056299999998	-45.58506700000000	0.10439700000000	0.00000000000000	-0.06819600000000	0.00000000000000	-5.62423900000000	0.00000000000000	0.00000000000000	-14.67678000000000	0.00000000000000	
17.15660100000000	-10.51300200000000	47.60696900000000	-11.69733000000000	0.29597400000000	0.00000000000000	0.09171300000000	-50.49306200000000	800.88495100000000	-45.20584100000000	0.10351100000000	0.00000000000000	-0.06809000000000	0.00000000000000	-6.37749700000000	0.00000000000000	0.00000000000000	-14.63445800000000	0.00000000000000	
17.15826300000000	-11.35912100000000	54.32298500000000	-12.85389100000000	0.29903300000000	0.00000000000000	0.09249300000000	-51.28661500000000	798.28763900000001	-44.80587800000000	0.10262400000000	0.00000000000000	-0.06798200000000	0.00000000000000	-7.07726900000000	0.00000000000000	0.00000000000000	-14.59322200000000	0.00000000000000	
17.15993400000000	-12.02371400000000	60.94963100000000	-13.86078600000000	0.30185500000000	0.00000000000000	0.09322000000000	-52.08812000000000	795.53603299999997	-44.38523000000000	0.10173700000000	0.00000000000000	-0.06787200000000	0.00000000000000	-7.70781800000000	0.00000000000000	0.00000000000000	-14.55305900000000	0.00000000000000	
17.16160300000000	-12.49154100000000	67.42000400000001	-14.70025800000000	0.30447300000000	0.00000000000000	0.09390300000000	-52.89681200000000	792.62759700000004	-43.94398400000000	0.10085000000000	0.00000000000000	-0.06775800000000	0.00000000000000	-8.25832800000000	0.00000000000000	0.00000000000000	-14.51394400000000	0.00000000000000	
17.16326600000000	-12.75721400000000	73.69399500000000	-15.36410000000000	0.30691600000000	0.00000000000000	0.09454500000000	-53.71184600000000	789.55985999999996	-43.48225200000000	0.09996400000000	0.00000000000000	-0.06764300000000	0.00000000000000	-8.72305900000000	0.00000000000000	0.00000000000000	-14.47583800000000	0.00000000000000	
17.16493200000000	-12.82431400000000	79.75757600000000	-15.85294900000000	0.30920700000000	0.00000000000000	0.09515000000000	-54.53229000000000	786.33042200000000	-43.00018200000000	0.09907800000000	0.00000000000000	-0.06752500000000	0.00000000000000	-9.10105500000000	0.00000000000000	0.00000000000000	-14.43868900000000	0.00000000000000	
17.16659800000000	-12.70392900000000	85.62007199999999	-16.17498000000000	0.31136500000000	0.00000000000000	0.09572300000000	-55.35713100000000	782.93696100000000	-42.49794700000000	0.09819400000000	0.00000000000000	-0.06740500000000	0.00000000000000	-9.39551200000000	0.00000000000000	0.00000000000000	-14.40243000000000	0.00000000000000	
17.16826700000000	-12.41282300000000	91.30997000000001	-16.34419700000000	0.31340700000000	0.00000000000000	0.09626700000000	-56.18527200000000	779.37724400000002	-41.97575700000000	0.09731200000000	0.00000000000000	-0.06728300000000	0.00000000000000	-9.61291700000000	0.00000000000000	0.00000000000000	-14.36698100000000	0.00000000000000	
17.16993000000000	-11.97145500000000	96.86988900000000	-16.37855200000000	0.31534700000000	0.00000000000000	0.09678300000000	-57.01552800000000	775.64913200000001	-41.43384800000000	0.09643200000000	0.00000000000000	-0.06715800000000	0.00000000000000	-9.76205200000000	0.00000000000000	0.00000000000000	-14.33224600000000	0.00000000000000	
17.17160300000000	-11.40204700000000	102.35125700000000	-16.29806200000000	0.31719500000000	0.00000000000000	0.09727400000000	-57.84663400000000	771.75059099999999	-40.87249100000000	0.09555500000000	0.00000000000000	-0.06703000000000	0.00000000000000	-9.85299700000000	0.00000000000000	0.00000000000000	-14.29811800000000	0.00000000000000	
